<svg xmlns="http://www.w3.org/2000/svg" viewBox="0 0 4988.03 1452.06">
  <g>
    <path d="M685.77,24.68l542,312.93a87.18,87.18,0,0,1,43.59,75.5V1039a87.21,87.21,0,0,1-43.59,75.51l-542,312.92a87.21,87.21,0,0,1-87.19,0l-542-312.92A87.21,87.21,0,0,1,13,1039V413.11a87.18,87.18,0,0,1,43.59-75.5l542-312.93a87.21,87.21,0,0,1,87.19,0Z" fill="#094b96" stroke="#fff" strokeMiterlimit="10" strokeWidth="26"/>
    <path d="M1583.09,595.8V855.89L1548,859.54v17.57h125.31V859.54l-56.73-4.1v-95.9c1.86.29,7.37.6,16.52,1s18,.6,26.73.6q32.63,0,59.2-12.44a100.15,100.15,0,0,0,42.07-36.19q15.53-23.67,15.49-55.91,0-42.9-23.9-64.26t-81.46-21.45c-13,0-26.66.52-40.81,1.64-2.68,0-7,.15-12.88.6s-11.76.59-17.72.59H1550.4v17.57Zm77.58,145.35c-22.56,0-37.3-.52-44.07-1.64V593c2.68,0,8.11-.31,16.3-.83a265.38,265.38,0,0,1,28.15-1.63c27.55,0,47.65,5.06,60.46,15.33s19.21,27.11,19.21,50.79q0,44.9-22.49,64.7c-15,13.26-34.18,19.81-57.56,19.81ZM1843.55,595.8V855.89l-35.07,3.65v17.57h221.29l12.65-69-19.65-6.1L2002,853.06l-124.94,3.2V730.57l75.13,1.19,5.29,34.7h20.4V676.22h-20.4l-5.29,33.87-75.13,1.27V592.52l109.38,2.09,11,39.16h19.66l-5.73-60H1809.3v17.57ZM2073.4,859.54v17.57H2184V859.54L2142,855.89V742q7.82.43,57.63.44c7.07,4,14.22,12.06,21.37,24.05s16.45,29.26,27.54,51.83q15.54,31,24.13,45c5.74,9.23,10.72,13.85,15.12,13.85h47.72V860l-17.12-4.54c-4.32-.82-9.31-5.36-14.89-13.63s-13-20.77-22.27-37.38q-15.86-28.57-26.73-44.67T2233,736.68a80.13,80.13,0,0,0,44.75-32.24,93.18,93.18,0,0,0,16.53-53.91q0-40.87-24.94-60.46t-83.25-19.59c-6.25,0-15.93.6-29,1.64-13.55,1.12-24.05,1.64-31.42,1.64h-49.81v16.76l32.69,4.91V855.89Zm168.21-154.73q-16.32,17.54-44.46,17.57h-25.76c-14.67,0-24.5-.15-29.41-.45V593c1.93,0,6.17-.31,12.66-.83a237.54,237.54,0,0,1,28.21-1.63q41.67,0,58.38,16.53T2258,653.36c0,22.63-5.5,39.76-16.37,51.45ZM2416,877.93c10.58,2.46,22.86,3.64,36.71,3.64q32.28,0,56.37-12.21c16-8.19,28.29-18.84,36.71-32.09s12.65-26.95,12.65-41.4c0-15.26-4.16-28.22-12.43-39a107.16,107.16,0,0,0-29-26.14q-16.53-9.94-46-23.82c-18.76-8.72-32.68-15.72-41.69-20.85a74.36,74.36,0,0,1-22-19c-5.65-7.52-8.56-16.83-8.56-28,0-16.3,5.37-28.59,15.94-36.93s26-12.44,46.17-12.44a111.74,111.74,0,0,1,30,3.88c9.38,2.6,15.71,5.21,19,8l7.29,50.63h20.41l2.46-66.94c-1.35-.3-5.67-1.49-13-3.72-13.62-3.8-24.86-6.55-33.65-8.34a154.69,154.69,0,0,0-30.46-2.69q-28.14,0-50,9.61c-14.52,6.4-25.91,15.49-34,27.18s-12.28,25-12.28,40c0,16.09,4.24,29.86,12.65,41.48a101.71,101.71,0,0,0,29.64,27.54,333,333,0,0,0,41,20.41c17.13,7.37,30.53,13.7,40.21,19.21a78.72,78.72,0,0,1,23.68,20q9.15,11.82,9.16,29c0,17.65-5.88,31.57-17.58,41.63s-28.59,15.11-50.62,15.11a122.14,122.14,0,0,1-36.94-5.36c-11.31-3.5-19.51-7.74-24.72-12.66l-6.1-53.46h-21.22l-3.28,72.67q2.91.45,16.75,4.92c13.85,4.32,26.14,7.74,36.78,10.2Zm232.91-15.71q28.37,19.32,68,19.35c25.54,0,48.85-6.47,69.77-19.58s37.6-31.64,49.81-55.69,18.4-52,18.4-83.55q0-46.12-14.89-80.41c-10-22.86-24.5-40.51-43.71-53.09s-42.3-18.77-69.18-18.77q-38,0-69,19.44t-49,55.1q-18,35.73-17.95,82.65,0,45.8,14.67,80.41t43.11,54.14ZM2654,625q25.68-35.29,69.39-35.3,29.37,0,50.41,16.76c14.07,11.17,24.72,26.73,32.09,46.76s11,43.19,11,69.54q0,45.35-11.84,76.77T2772,846.73c-14.14,10.42-30.75,15.71-49.81,15.71q-29.37,0-50.63-17.2c-14.15-11.39-25-27.33-32.24-47.73s-11-43.71-11-69.84q0-67.35,25.69-102.68Zm271.1-29.19V855.44l-32.69,4.1v17.57h93.52V859.54l-37.15-3.65V612.56l33.43,54.28,146.16,210.27h21.3V595.8l33.43-4.47V573.76H3090v17.57l36,4.47V824l-23.31-40.8L2958.12,573.76h-65.75v17.57Zm392.77-24.87-101.26,285-26.14,3.65v17.57h91.88V859.54l-36.33-4.1L3267.57,791H3395l21.59,64.93-35.89,3.65v17.57h99.63V859.54l-26.58-3.65-102.46-285Zm23.68,62.84,46.09,136H3274.49L3319,635,3330,595Zm190.24-38V855.89l-35.14,3.65v17.57h212.28L3724,792.22,3704.42,789l-22.86,63.66-116.38,3.28V595.8l40.88-4.47V573.76H3497.42v17.57ZM3853,592.15V855.89l-53.46,3.65v17.57h146.9V859.54l-58.37-3.65V592.15l78.85,2.46,11.39,82.87H4000l-4.54-103.72H3746.86l-6.92,103.72h22.48l13-82.87Zm225.55,255.77q27.14,32.51,85.91,32.47,49,0,78.63-32.1,29.61-31.93,29.56-95.68V595.8l31.05-4.47V573.76h-90.63v17.57l33.9,4.92v158q0,52.15-20.05,79.15c-13.32,18-33.06,27-59.19,27s-46.29-8.26-60.59-24.86-21.44-44.83-21.44-84.52V595.8l35.12-4.47V573.76H4020.79v17.57l30.69,4.47V747.25q0,68.25,27.11,100.67Zm252.93,11.62v17.57h110.63V859.54l-42-3.65V742q7.69.43,57.54.44,10.6,6,21.45,24.05t27.55,51.83q15.54,31,24.13,45c5.66,9.23,10.72,13.85,15,13.85h47.8V860l-17.15-4.54c-4.38-.82-9.29-5.36-14.88-13.63s-13-20.77-22.25-37.38q-16-28.57-26.75-44.67t-21.44-23.08a79.61,79.61,0,0,0,44.67-32.24,93.11,93.11,0,0,0,16.53-53.91q0-40.87-24.85-60.46t-83.34-19.59c-6.26,0-15.92.6-29,1.64-13.62,1.12-24.12,1.64-31.41,1.64H4334v16.76l32.61,4.91V855.89Zm168.2-154.73q-16.34,17.54-44.54,17.57H4429.5c-14.74,0-24.49-.15-29.4-.45V593c1.92,0,6.08-.31,12.65-.83a235.75,235.75,0,0,1,28.14-1.63q41.67,0,58.38,16.53T4516,653.36q0,33.95-16.3,51.45Zm162.47-109L4632,855.89l-34.7,3.65v17.57h102.08V859.54l-40-3.65,16.76-186.15,8.12-81.68,26.58,79.22,69.41,195.16h16.31l73.85-218,18-56.36,8.93,81.68,18.85,186.15-38,3.65v17.57H4988V859.54l-37.17-4.1L4918.53,595.8l45-4.47V573.76H4868l-62.94,188.61-13.46,54.72-15.13-54.72-63.21-188.61H4616.9v17.57Z" fill="#fff"/>
    <path d="M788.35,264.36V380.91H710.14V264.36H593.75V380.91H495.64V264.36H379.23v233H904.9v-233ZM914.86,1173.5l-76.74-588H446l-76.73,588h194.6V986.09a78.12,78.12,0,1,1,156.24,0V1173.5Z" fill="#fff"/>
  </g>
</svg>
