<svg width="4989" height="1453" viewBox="0 0 4989 1453" fill="none" xmlns="http://www.w3.org/2000/svg">
<g clip-path="url(#clip0_833_6095)">
<path d="M685.77 24.68L1227.77 337.61C1241.02 345.262 1252.03 356.267 1259.68 369.52C1267.33 382.773 1271.36 397.807 1271.36 413.11V1039C1271.36 1054.3 1267.33 1069.34 1259.68 1082.59C1252.03 1095.85 1241.02 1106.86 1227.77 1114.51L685.77 1427.43C672.515 1435.08 657.48 1439.11 642.175 1439.11C626.87 1439.11 611.835 1435.08 598.58 1427.43L56.58 1114.51C43.3294 1106.85 32.3267 1095.85 24.6771 1082.59C17.0275 1069.34 13.0003 1054.3 13 1039V413.11C13 397.807 17.0283 382.773 24.6799 369.52C32.3316 356.267 43.337 345.262 56.59 337.61L598.59 24.68C611.845 17.0294 626.88 13.0018 642.185 13.0018C657.49 13.0018 672.525 17.0294 685.78 24.68H685.77Z" fill="#094B96" stroke="white" strokeWidth="26" strokeMiterlimit="10"/>
<path d="M1583.09 595.8V855.89L1548 859.54V877.11H1673.31V859.54L1616.58 855.44V759.54C1618.44 759.83 1623.95 760.14 1633.1 760.54C1642.25 760.94 1651.1 761.14 1659.83 761.14C1681.58 761.14 1701.32 756.993 1719.03 748.7C1736.18 740.84 1750.77 728.295 1761.1 712.51C1771.45 696.73 1776.62 678.093 1776.59 656.6C1776.59 628 1768.62 606.58 1752.69 592.34C1736.76 578.1 1709.6 570.95 1671.23 570.89C1658.23 570.89 1644.57 571.41 1630.42 572.53C1627.74 572.53 1623.42 572.68 1617.54 573.13C1611.66 573.58 1605.78 573.72 1599.82 573.72H1550.4V591.29L1583.09 595.8ZM1660.67 741.15C1638.11 741.15 1623.37 740.63 1616.6 739.51V593C1619.28 593 1624.71 592.69 1632.9 592.17C1642.25 591.128 1651.64 590.584 1661.05 590.54C1688.6 590.54 1708.7 595.6 1721.51 605.87C1734.32 616.14 1740.72 632.98 1740.72 656.66C1740.72 686.593 1733.22 708.16 1718.23 721.36C1703.23 734.62 1684.05 741.17 1660.67 741.17V741.15ZM1843.55 595.8V855.89L1808.48 859.54V877.11H2029.77L2042.42 808.11L2022.77 802.01L2002 853.06L1877.06 856.26V730.57L1952.19 731.76L1957.48 766.46H1977.88V676.22H1957.48L1952.19 710.09L1877.06 711.36V592.52L1986.44 594.61L1997.44 633.77H2017.1L2011.37 573.77H1809.3V591.34L1843.55 595.8ZM2073.4 859.54V877.11H2184V859.54L2142 855.89V742C2147.21 742.287 2166.42 742.433 2199.63 742.44C2206.7 746.44 2213.85 754.5 2221 766.49C2228.15 778.48 2237.45 795.75 2248.54 818.32C2258.9 838.987 2266.94 853.987 2272.67 863.32C2278.41 872.55 2283.39 877.17 2287.79 877.17H2335.51V860L2318.39 855.46C2314.07 854.64 2309.08 850.1 2303.5 841.83C2297.92 833.56 2290.5 821.06 2281.23 804.45C2270.66 785.403 2261.75 770.513 2254.5 759.78C2247.25 749.047 2240.09 741.347 2233 736.68C2251.26 731.567 2267.12 720.143 2277.75 704.44C2288.7 688.608 2294.47 669.776 2294.28 650.53C2294.28 623.283 2285.97 603.13 2269.34 590.07C2252.71 577.01 2224.96 570.48 2186.09 570.48C2179.84 570.48 2170.16 571.08 2157.09 572.12C2143.54 573.24 2133.04 573.76 2125.67 573.76H2075.86V590.52L2108.55 595.43V855.89L2073.4 859.54ZM2241.61 704.81C2230.73 716.503 2215.91 722.36 2197.15 722.38H2171.39C2156.72 722.38 2146.89 722.23 2141.98 721.93V593C2143.91 593 2148.15 592.69 2154.64 592.17C2164 591.067 2173.42 590.523 2182.85 590.54C2210.63 590.54 2230.09 596.05 2241.23 607.07C2252.37 618.09 2257.96 633.52 2258 653.36C2258 675.99 2252.5 693.12 2241.63 704.81H2241.61ZM2416 877.93C2426.58 880.39 2438.86 881.57 2452.71 881.57C2474.23 881.57 2493.02 877.5 2509.08 869.36C2525.08 861.17 2537.37 850.52 2545.79 837.27C2554.21 824.02 2558.44 810.32 2558.44 795.87C2558.44 780.61 2554.28 767.65 2546.01 756.87C2538.03 746.454 2528.2 737.594 2517.01 730.73C2505.99 724.103 2490.66 716.163 2471.01 706.91C2452.25 698.19 2438.33 691.19 2429.32 686.06C2420.81 681.236 2413.33 674.779 2407.32 667.06C2401.67 659.54 2398.76 650.23 2398.76 639.06C2398.76 622.76 2404.13 610.47 2414.7 602.13C2425.27 593.79 2440.7 589.69 2460.87 589.69C2471 589.618 2481.09 590.923 2490.87 593.57C2500.25 596.17 2506.58 598.78 2509.87 601.57L2517.16 652.2H2537.57L2540.03 585.26C2538.68 584.96 2534.36 583.77 2527.03 581.54C2513.41 577.74 2502.17 574.99 2493.38 573.2C2483.34 571.3 2473.14 570.398 2462.92 570.51C2444.16 570.51 2427.49 573.713 2412.92 580.12C2398.4 586.52 2387.01 595.61 2378.92 607.3C2370.83 618.99 2366.64 632.3 2366.64 647.3C2366.64 663.39 2370.88 677.16 2379.29 688.78C2387.23 699.852 2397.31 709.218 2408.93 716.32C2422.11 724.056 2435.81 730.876 2449.93 736.73C2467.06 744.1 2480.46 750.43 2490.14 755.94C2499.28 760.971 2507.33 767.77 2513.82 775.94C2519.92 783.82 2522.97 793.487 2522.98 804.94C2522.98 822.59 2517.1 836.51 2505.4 846.57C2493.7 856.63 2476.81 861.68 2454.78 861.68C2442.26 861.797 2429.81 859.989 2417.84 856.32C2406.53 852.82 2398.33 848.58 2393.12 843.66L2387.02 790.2H2365.8L2362.52 862.87C2364.46 863.17 2370.04 864.81 2379.27 867.79C2393.12 872.11 2405.41 875.53 2416.05 877.99L2416 877.93ZM2648.91 862.22C2667.82 875.1 2690.49 881.55 2716.91 881.57C2742.45 881.57 2765.76 875.1 2786.68 861.99C2807.6 848.88 2824.28 830.35 2836.49 806.3C2848.7 782.25 2854.89 754.3 2854.89 722.75C2854.89 692.003 2849.93 665.2 2840 642.34C2830 619.48 2815.5 601.83 2796.29 589.25C2777.08 576.67 2753.99 570.48 2727.11 570.48C2701.78 570.48 2678.78 576.96 2658.11 589.92C2637.44 602.88 2621.11 621.247 2609.11 645.02C2597.11 668.84 2591.13 696.39 2591.16 727.67C2591.16 758.203 2596.05 785.007 2605.83 808.08C2615.61 831.153 2629.98 849.2 2648.94 862.22H2648.91ZM2654 625C2671.12 601.473 2694.25 589.707 2723.39 589.7C2742.97 589.7 2759.77 595.287 2773.8 606.46C2787.87 617.63 2798.52 633.19 2805.89 653.22C2813.26 673.25 2816.89 696.41 2816.89 722.76C2816.89 752.993 2812.94 778.583 2805.05 799.53C2797.16 820.477 2786.14 836.21 2772 846.73C2757.86 857.15 2741.25 862.44 2722.19 862.44C2702.61 862.44 2685.73 856.707 2671.56 845.24C2657.41 833.85 2646.56 817.91 2639.32 797.51C2632.08 777.11 2628.32 753.8 2628.32 727.67C2628.32 682.77 2636.88 648.543 2654.01 624.99L2654 625ZM2925.1 595.81V855.44L2892.41 859.54V877.11H2985.93V859.54L2948.78 855.89V612.56L2982.21 666.84L3128.37 877.11H3149.67V595.8L3183.1 591.33V573.76H3090V591.33L3126 595.8V824L3102.69 783.2L2958.12 573.76H2892.37V591.33L2925.1 595.81ZM3317.87 570.94L3216.61 855.94L3190.47 859.59V877.16H3282.35V859.54L3246.02 855.44L3267.57 791H3395L3416.59 855.93L3380.7 859.58V877.15H3480.33V859.54L3453.75 855.89L3351.29 570.89L3317.87 570.94ZM3341.55 633.78L3387.64 769.78H3274.49L3319 635L3330 595L3341.55 633.78ZM3531.79 595.78V855.89L3496.65 859.54V877.11H3708.93L3724 792.22L3704.42 789L3681.56 852.66L3565.18 855.94V595.8L3606.06 591.33V573.76H3497.42V591.33L3531.79 595.78ZM3853 592.15V855.89L3799.54 859.54V877.11H3946.44V859.54L3888.07 855.89V592.15L3966.92 594.61L3978.31 677.48H4000L3995.46 573.76H3746.86L3739.94 677.48H3762.42L3775.42 594.61L3853 592.15ZM4078.55 847.92C4096.64 869.593 4125.28 880.417 4164.46 880.39C4197.13 880.39 4223.34 869.69 4243.09 848.29C4262.83 827.003 4272.68 795.11 4272.65 752.61V595.8L4303.7 591.33V573.76H4213.07V591.33L4246.97 596.25V754.25C4246.97 789.017 4240.29 815.4 4226.92 833.4C4213.6 851.4 4193.86 860.4 4167.73 860.4C4141.6 860.4 4121.44 852.14 4107.14 835.54C4092.84 818.94 4085.7 790.71 4085.7 751.02V595.8L4120.82 591.33V573.76H4020.79V591.33L4051.48 595.8V747.25C4051.48 792.75 4060.52 826.307 4078.59 847.92H4078.55ZM4331.48 859.54V877.11H4442.11V859.54L4400.11 855.89V742C4405.24 742.287 4424.42 742.433 4457.65 742.44C4464.72 746.44 4471.87 754.457 4479.1 766.49C4486.33 778.523 4495.52 795.8 4506.65 818.32C4517.01 838.987 4525.05 853.987 4530.78 863.32C4536.44 872.55 4541.5 877.17 4545.78 877.17H4593.58V860L4576.43 855.46C4572.05 854.64 4567.14 850.1 4561.55 841.83C4555.96 833.56 4548.55 821.06 4539.3 804.45C4528.63 785.403 4519.72 770.513 4512.55 759.78C4505.38 749.047 4498.24 741.353 4491.11 736.7C4509.36 731.612 4525.2 720.18 4535.78 704.46C4546.73 688.63 4552.5 669.797 4552.31 650.55C4552.31 623.303 4544.03 603.15 4527.46 590.09C4510.89 577.03 4483.11 570.5 4444.12 570.5C4437.86 570.5 4428.2 571.1 4415.12 572.14C4401.5 573.26 4391 573.78 4383.71 573.78H4334V590.54L4366.61 595.45V855.89L4331.48 859.54ZM4499.68 704.81C4488.79 716.503 4473.94 722.36 4455.14 722.38H4429.5C4414.76 722.38 4405.01 722.23 4400.1 721.93V593C4402.02 593 4406.18 592.69 4412.75 592.17C4422.09 591.066 4431.49 590.522 4440.89 590.54C4468.67 590.54 4488.13 596.05 4499.27 607.07C4510.41 618.09 4515.99 633.52 4516 653.36C4516 675.993 4510.57 693.143 4499.7 704.81H4499.68ZM4662.15 595.81L4632 855.89L4597.3 859.54V877.11H4699.38V859.54L4659.38 855.89L4676.14 669.74L4684.26 588.06L4710.84 667.28L4780.25 862.44H4796.56L4870.41 644.44L4888.41 588.08L4897.34 669.76L4916.19 855.91L4878.19 859.56V877.13H4988V859.54L4950.83 855.44L4918.53 595.8L4963.53 591.33V573.76H4868L4805.06 762.37L4791.6 817.09L4776.47 762.37L4713.26 573.76H4616.9V591.33L4662.15 595.81Z" fill="#094B96"/>
<path d="M788.35 264.36V380.91H710.14V264.36H593.75V380.91H495.64V264.36H379.23V497.36H904.9V264.36H788.35ZM914.86 1173.5L838.12 585.5H446L369.27 1173.5H563.87V986.09C563.87 975.831 565.891 965.673 569.817 956.195C573.742 946.717 579.497 938.105 586.751 930.851C594.005 923.597 602.617 917.842 612.095 913.917C621.573 909.991 631.731 907.97 641.99 907.97C652.249 907.97 662.407 909.991 671.885 913.917C681.363 917.842 689.975 923.597 697.229 930.851C704.483 938.105 710.238 946.717 714.163 956.195C718.089 965.673 720.11 975.831 720.11 986.09V1173.5H914.86Z" fill="white"/>
</g>
<defs>
<clipPath id="clip0_833_6095">
<rect width="4988.03" height="1452.06" fill="white"/>
</clipPath>
</defs>
</svg>
