<svg width="1285" height="1453" viewBox="0 0 1285 1453" fill="none" xmlns="http://www.w3.org/2000/svg">
<path d="M685.77 24.6801L1227.77 337.61C1241.02 345.262 1252.03 356.267 1259.68 369.52C1267.33 382.773 1271.36 397.807 1271.36 413.11V1039C1271.36 1054.3 1267.33 1069.34 1259.68 1082.59C1252.03 1095.85 1241.02 1106.86 1227.77 1114.51L685.77 1427.43C672.515 1435.08 657.48 1439.11 642.175 1439.11C626.87 1439.11 611.835 1435.08 598.58 1427.43L56.58 1114.51C43.3294 1106.85 32.3267 1095.85 24.6771 1082.59C17.0275 1069.34 13.0003 1054.3 13 1039V413.11C13 397.807 17.0283 382.773 24.6799 369.52C32.3316 356.267 43.337 345.262 56.59 337.61L598.59 24.6801C611.845 17.0295 626.88 13.002 642.185 13.002C657.49 13.002 672.525 17.0295 685.78 24.6801H685.77Z" fill="#094B96" stroke="white" strokeWidth="26" strokeMiterlimit="10"/>
<path d="M788.35 264.36V380.91H710.14V264.36H593.75V380.91H495.64V264.36H379.23V497.36H904.9V264.36H788.35ZM914.86 1173.5L838.12 585.5H446L369.27 1173.5H563.87V986.09C563.87 975.831 565.891 965.673 569.817 956.195C573.742 946.717 579.497 938.105 586.751 930.851C594.005 923.597 602.617 917.842 612.095 913.916C621.573 909.99 631.731 907.97 641.99 907.97C652.249 907.97 662.407 909.99 671.885 913.916C681.363 917.842 689.975 923.597 697.229 930.851C704.483 938.105 710.238 946.717 714.163 956.195C718.089 965.673 720.11 975.831 720.11 986.09V1173.5H914.86Z" fill="white"/>
</svg>
